<?xml version="1.0"?>
<svg xmlns="http://www.w3.org/2000/svg" id="giving" enable-background="new 0 0 300 300" height="512px" viewBox="0 0 300 300" width="512px" class=""><g><circle cx="166.104" cy="176.324" fill="#e5efef" r="90" data-original="#E5EFEF" class="" style="fill:#DDDDDD" data-old_color="#e5efef"/><path d="m244.104 134.324-.636-.071c-22.991-2.555-35.226 12.688-55.364 24.071l-65.817 21.939c-3.692 1.231-6.183 4.686-6.183 8.578 0 5.163 4.315 9.277 9.472 9.032l74.528-3.549z" fill="#e7d1c4" data-original="#E7D1C4" class="" style="fill:#ECD6FF" data-old_color="#e7d1c4"/><path d="m125.126 201.884c-3.361 0-6.529-1.266-8.98-3.604-2.606-2.485-4.042-5.837-4.042-9.438 0-5.623 3.584-10.595 8.918-12.373l65.447-21.815c5.142-2.931 9.795-6.141 14.298-9.248 12.787-8.824 24.866-17.161 43.143-15.127l.637.071c1.419.158 2.646 1.061 3.221 2.368.573 1.307.407 2.821-.438 3.973l-44 60c-.714.974-1.829 1.573-3.035 1.63l-74.527 3.549c-.215.009-.429.014-.642.014zm111.308-63.865c-11.763.611-20.493 6.637-31.124 13.972-4.745 3.273-9.651 6.658-15.238 9.816-.224.126-.459.231-.703.312l-65.817 21.939c-2.062.687-3.447 2.609-3.447 4.783 0 1.392.555 2.688 1.562 3.649 1.008.96 2.326 1.451 3.72 1.387l72.621-3.458z" fill="#4c241d" data-original="#4C241D" class="" style="fill:#AB68E9" data-old_color="#4c241d"/><path d="m36.104 194.683 40 47.641 16.202-10.748-41.376-51.719z" fill="#fc8c29" data-original="#FC8C29" class="" style="fill:#8A2BE2" data-old_color="#fc8c29"/><path d="m76.106 246.324c-1.146 0-2.279-.492-3.065-1.428l-40-47.642c-1.334-1.589-1.231-3.934.235-5.401l14.826-14.826c.804-.804 1.906-1.234 3.05-1.165 1.136.062 2.191.606 2.901 1.495l41.376 51.72c.702.877 1.002 2.008.829 3.117-.174 1.109-.806 2.094-1.741 2.715l-16.202 10.748c-.677.45-1.447.667-2.209.667zm-34.581-51.405 35.345 42.098 9.581-6.356-35.853-44.815z" fill="#4c241d" data-original="#4C241D" class="" style="fill:#AB68E9" data-old_color="#4c241d"/><path d="m260.626 135.07c-4.638-4.76-12.314-4.672-16.843.192l-44.183 47.457c-7.103 7.629-17.058 11.963-27.483 11.963h-21.744c-5.737 0-10.388-4.651-10.388-10.388 0-5.737 4.651-10.388 10.388-10.388h26.845c6.891 0 13.191-3.894 16.273-10.057 4.053-8.106-1.842-17.644-10.905-17.644h-77.235c-13.299 0-26.052 5.282-35.456 14.686l-18.965 18.966 41.376 51.72 8.71-5.778c7.348-4.875 15.97-7.474 24.788-7.474h58.613c11.369 0 22.182-4.923 29.646-13.499l47.007-54.002c3.974-4.567 3.782-11.419-.444-15.754z" fill="#ffe8dc" data-original="#FFE8DC" class="" style="fill:#ECD6FF" data-old_color="#ffe8dc"/><path d="m92.309 235.576c-1.179 0-2.341-.519-3.126-1.501l-41.376-51.719c-1.273-1.592-1.146-3.886.295-5.328l18.965-18.965c10.227-10.226 23.822-15.857 38.284-15.857h77.235c5.652 0 10.802 2.871 13.773 7.68s3.236 10.698.708 15.753c-3.783 7.567-11.39 12.268-19.85 12.268h-26.846c-3.522 0-6.388 2.866-6.388 6.388 0 3.523 2.865 6.389 6.388 6.389h21.744c9.281 0 18.231-3.896 24.556-10.689l44.184-47.458c2.943-3.162 6.943-4.93 11.262-4.979 4.342-.049 8.358 1.627 11.373 4.721 5.636 5.782 5.897 15.082.597 21.172l-47.007 54.002c-8.228 9.452-20.133 14.873-32.664 14.873h-58.612c-8.057 0-15.864 2.354-22.577 6.807l-8.71 5.778c-.678.448-1.447.665-2.208.665zm-36.019-55.422 36.854 46.067 5.661-3.755c8.027-5.326 17.364-8.141 26.999-8.141h58.612c10.216 0 19.922-4.419 26.629-12.125l47.008-54.002c2.587-2.973 2.46-7.513-.291-10.335-1.451-1.489-3.388-2.306-5.463-2.306-.029 0-.06 0-.09 0-2.108.024-4.062.887-5.498 2.431l-44.184 47.458c-7.833 8.413-18.917 13.238-30.411 13.238h-21.744c-7.934 0-14.388-6.455-14.388-14.388s6.454-14.388 14.388-14.388h26.846c5.41 0 10.274-3.006 12.694-7.846 1.279-2.558 1.146-5.537-.357-7.97-1.504-2.433-4.109-3.885-6.969-3.885h-77.235c-12.325 0-23.912 4.799-32.628 13.515z" fill="#4c241d" data-original="#4C241D" class="" style="fill:#AB68E9" data-old_color="#4c241d"/><circle cx="122.104" cy="92.324" fill="#ffce56" r="32.281" data-original="#FFCE56" class="active-path" style="fill:#8A2BE2" data-old_color="#ffce56"/><path d="m122.104 128.605c-20.005 0-36.28-16.275-36.28-36.281s16.275-36.281 36.28-36.281c20.006 0 36.281 16.275 36.281 36.281s-16.275 36.281-36.281 36.281zm0-64.561c-15.594 0-28.28 12.687-28.28 28.281s12.687 28.281 28.28 28.281c15.595 0 28.281-12.687 28.281-28.281s-12.687-28.281-28.281-28.281z" fill="#4c241d" data-original="#4C241D" class="" style="fill:#AB68E9" data-old_color="#4c241d"/><circle cx="122.104" cy="92.324" fill="#ffce56" r="16.908" data-original="#FFCE56" class="active-path" style="fill:#8A2BE2" data-old_color="#ffce56"/><path d="m122.104 113.233c-11.529 0-20.908-9.379-20.908-20.908s9.379-20.908 20.908-20.908 20.908 9.379 20.908 20.908-9.379 20.908-20.908 20.908zm0-33.817c-7.117 0-12.908 5.791-12.908 12.908s5.791 12.908 12.908 12.908 12.908-5.791 12.908-12.908-5.791-12.908-12.908-12.908z" fill="#4c241d" data-original="#4C241D" class="" style="fill:#AB68E9" data-old_color="#4c241d"/><circle cx="162.104" cy="76.324" fill="#ffce56" r="38.649" data-original="#FFCE56" class="active-path" style="fill:#8A2BE2" data-old_color="#ffce56"/><path d="m162.104 118.973c-23.517 0-42.648-19.132-42.648-42.649s19.132-42.649 42.648-42.649 42.649 19.132 42.649 42.649-19.133 42.649-42.649 42.649zm0-77.297c-19.105 0-34.648 15.543-34.648 34.649s15.543 34.649 34.648 34.649 34.649-15.543 34.649-34.649-15.544-34.649-34.649-34.649z" fill="#4c241d" data-original="#4C241D" class="" style="fill:#AB68E9" data-old_color="#4c241d"/><circle cx="162.104" cy="76.324" fill="#ffce56" r="25.227" data-original="#FFCE56" class="active-path" style="fill:#8A2BE2" data-old_color="#ffce56"/><path d="m162.104 105.552c-16.115 0-29.227-13.111-29.227-29.227s13.111-29.227 29.227-29.227 29.228 13.111 29.228 29.227-13.112 29.227-29.228 29.227zm0-50.455c-11.704 0-21.227 9.522-21.227 21.227s9.522 21.227 21.227 21.227 21.228-9.522 21.228-21.227-9.523-21.227-21.228-21.227z" fill="#4c241d" data-original="#4C241D" class="" style="fill:#AB68E9" data-old_color="#4c241d"/></g> </svg>
