<svg aria-hidden="true" style="position: absolute; width: 0; height: 0; overflow: hidden;" version="1.1" xmlns="http://www.w3.org/2000/svg" xmlns:xlink="http://www.w3.org/1999/xlink">
<defs>
<symbol id="acr-email" viewBox="0 0 32 32">
<title>email</title>
<path d="M10.408 19.329l-2.784-1.33-2.351 5.805c-0.007 0.018-0.014 0.037-0.021 0.055-0.299 0.896-0.232 1.71 0.187 2.291 0.364 0.505 0.948 0.783 1.646 0.783h0c0.33 0 0.685-0.063 1.055-0.186 0.019-0.006 0.037-0.013 0.055-0.020l5.805-2.351-1.33-2.785c-0.356-0.744-1.519-1.908-2.263-2.263z"></path>
<path d="M31.92 1.406l-18.279 18.279c0.303 0.374 0.556 0.752 0.722 1.099l4.64 9.716c0.623 1.305 1.445 1.5 1.879 1.5h0c0.388 0 1.346-0.169 1.867-1.732l9.065-27.194c0.203-0.61 0.237-1.182 0.106-1.668z"></path>
<path d="M12.315 18.359l18.28-18.28c-0.192-0.052-0.397-0.079-0.614-0.079-0.331 0-0.686 0.063-1.055 0.186l-27.194 9.064c-1.439 0.48-1.701 1.317-1.729 1.773s0.129 1.32 1.497 1.973l9.716 4.64c0.347 0.166 0.725 0.419 1.099 0.722z"></path>
</symbol>
<symbol id="acr-Advice" viewBox="0 0 32 32">
<title>Advice</title>
<path d="M6.762 0c-3.747 0-6.762 3.015-6.762 6.762v18.477c0 3.747 3.015 6.762 6.762 6.762h18.477c3.747 0 6.762-3.015 6.762-6.762v-18.477c0-3.747-3.015-6.762-6.762-6.762h-18.477zM16 8.5c4.136 0 7.5 3.364 7.5 7.5s-3.364 7.5-7.5 7.5c-4.136 0-7.5-3.364-7.5-7.5s3.364-7.5 7.5-7.5zM16 9.5c-3.596 0-6.5 2.904-6.5 6.5s2.904 6.5 6.5 6.5 6.5-2.904 6.5-6.5c0-3.596-2.904-6.5-6.5-6.5zM15.906 11.938c0.009-0.001 0.020-0.001 0.031-0.001s0.022 0 0.033 0.001l-0.001-0c0.005-0 0.010-0 0.016-0s0.011 0 0.016 0l-0.001-0c0.276 0 0.5 0.224 0.5 0.5v0c0 0.276-0.224 0.5-0.5 0.5v0c-0.276 0-0.5-0.224-0.5-0.5v0c-0-0.003-0-0.006-0-0.009 0-0.243 0.173-0.446 0.403-0.491l0.003-0.001zM15.949 13.811c0.002-0 0.004-0 0.006-0 0.016 0 0.031 0.001 0.047 0.002l-0.002-0c0.276 0 0.5 0.224 0.5 0.5v0 5.25c0 0.002 0 0.005 0 0.007 0 0.276-0.224 0.5-0.5 0.5s-0.5-0.224-0.5-0.5c0-0.003 0-0.005 0-0.007v0-5.25c-0-0.003-0-0.006-0-0.009 0-0.243 0.173-0.446 0.403-0.491l0.003-0.001c0.013-0.001 0.028-0.002 0.043-0.002h0z"></path>
</symbol>
<symbol id="acr-Process" viewBox="0 0 32 32">
<title>Process</title>
<path d="M13.977 23.526c0.001-0.008 0.001-0.016 0.002-0.024 0.011-0.073 0.018-0.158 0.018-0.244 0-0.484-0.201-0.921-0.524-1.232l-0.001-0c-0.716-0.676-1.162-1.632-1.162-2.692 0-0.052 0.001-0.104 0.003-0.156l-0 0.007c0.068-1.861 1.586-3.416 3.456-3.539 0.068-0.004 0.147-0.007 0.226-0.007 2.042 0 3.697 1.655 3.697 3.697 0 1.059-0.446 2.015-1.16 2.689l-0.002 0.002c-0.312 0.304-0.506 0.728-0.506 1.198 0 0.043 0.002 0.085 0.005 0.127l-0-0.006q0 0.006 0.001 0.012l0.005 0.165c1.678-0.788 2.818-2.463 2.818-4.405 0-2.68-2.172-4.852-4.852-4.852s-4.852 2.172-4.852 4.852c0 1.945 1.145 3.623 2.798 4.397l0.030 0.012z"></path>
<path d="M18.818 19.335c-0-1.558-1.263-2.821-2.821-2.821-0.061 0-0.121 0.002-0.181 0.006l0.008-0c-1.424 0.094-2.584 1.279-2.635 2.699-0.001 0.034-0.002 0.074-0.002 0.114 0 0.81 0.341 1.541 0.887 2.056l0.001 0.001c0.492 0.472 0.797 1.135 0.797 1.869 0 0.123-0.009 0.243-0.025 0.361l0.002-0.014-0.014 0.222c0.208 0.054 0.456 0.097 0.709 0.12l0.019 0.001v-2.823h-0.216c-0.242 0-0.438-0.196-0.438-0.438s0.196-0.438 0.438-0.438v0h1.312c0.242 0 0.438 0.196 0.438 0.438s-0.196 0.438-0.438 0.438v0h-0.22v2.823c0.274-0.025 0.523-0.068 0.764-0.129l-0.033 0.007-0.012-0.438c-0.003-0.050-0.005-0.108-0.005-0.166 0-0.72 0.299-1.37 0.78-1.832l0.001-0.001c0.546-0.516 0.887-1.246 0.887-2.055v-0zM19.856 9.063h6.188l-6.982-6.536v5.844c0 0.396 0.361 0.692 0.794 0.692z"></path>
<path d="M9.575 20.5c0.183 0.83 0.503 1.563 0.94 2.212l-0.014-0.023c0.046 0.068 0.073 0.152 0.073 0.242 0 0.106-0.038 0.204-0.101 0.28l0.001-0.001-0.963 1.16 1.25 1.247 1.161-0.963c0.075-0.063 0.173-0.101 0.279-0.101 0.088 0 0.17 0.026 0.238 0.070l-0.002-0.001c0.629 0.417 1.364 0.737 2.152 0.916l0.044 0.008c0.185 0.040 0.325 0.194 0.344 0.383l0 0.002 0.146 1.505h1.776l0.146-1.505c0.019-0.191 0.159-0.344 0.341-0.383l0.003-0.001c0.831-0.181 1.565-0.501 2.215-0.936l-0.023 0.015c0.068-0.046 0.151-0.073 0.241-0.073 0.107 0 0.204 0.038 0.28 0.101l-0.001-0.001 1.161 0.962 1.25-1.247-0.962-1.16c-0.063-0.075-0.101-0.173-0.101-0.28 0-0.089 0.026-0.171 0.072-0.24l-0.001 0.002c0.417-0.628 0.737-1.362 0.918-2.149l0.009-0.045c0.041-0.183 0.193-0.321 0.38-0.34l0.002-0 1.484-0.146v-1.772l-1.506-0.146c-0.189-0.019-0.342-0.158-0.38-0.34l-0-0.003c-0.183-0.83-0.503-1.563-0.939-2.212l0.015 0.023c-0.046-0.068-0.073-0.152-0.073-0.242 0-0.106 0.038-0.204 0.101-0.28l-0.001 0.001 0.964-1.162-1.231-1.244-1.159 0.961c-0.075 0.063-0.173 0.101-0.28 0.101-0.088 0-0.169-0.026-0.238-0.070l0.002 0.001c-0.629-0.417-1.364-0.737-2.152-0.916l-0.044-0.008c-0.185-0.040-0.325-0.194-0.344-0.383l-0-0.002-0.146-1.506h-1.776l-0.146 1.505c-0.019 0.191-0.159 0.344-0.341 0.383l-0.003 0.001c-0.831 0.181-1.565 0.501-2.215 0.936l0.023-0.015c-0.068 0.046-0.151 0.073-0.241 0.073-0.107 0-0.204-0.038-0.28-0.101l0.001 0.001-1.161-0.963-1.25 1.248 0.963 1.16c0.063 0.075 0.101 0.173 0.101 0.28 0 0.089-0.026 0.171-0.072 0.24l0.001-0.002c-0.417 0.628-0.737 1.362-0.918 2.149l-0.009 0.045c-0.041 0.183-0.193 0.322-0.381 0.34l-0.002 0-1.506 0.146v1.772l1.506 0.146c0.19 0.019 0.342 0.158 0.38 0.34l0.001 0.003zM16.002 13.406c3.155 0.005 5.711 2.563 5.711 5.719 0 3.158-2.56 5.719-5.719 5.719s-5.719-2.56-5.719-5.719v0c0.006-3.159 2.567-5.717 5.727-5.719h0z"></path>
<path d="M7.255 30.125h17.49c1.106 0 2.005-0.84 2.005-1.873v-18.314h-6.894c-0.915 0-1.669-0.689-1.669-1.568v-6.495h-10.932c-1.107 0-2.005 0.84-2.005 1.873v24.503c0 1.033 0.899 1.873 2.005 1.873zM6.813 17.842c0-0.001-0-0.003-0-0.004 0-0.224 0.17-0.409 0.389-0.431l0.002-0 1.593-0.155c0.197-0.72 0.47-1.35 0.82-1.929l-0.019 0.034-1.016-1.225c-0.063-0.075-0.101-0.173-0.101-0.279 0-0.121 0.049-0.23 0.128-0.31l1.814-1.81c0.079-0.079 0.188-0.128 0.309-0.128 0.107 0 0.204 0.038 0.28 0.101l-0.001-0.001 1.224 1.015c0.547-0.334 1.179-0.607 1.85-0.787l0.051-0.012 0.154-1.591c0.022-0.222 0.208-0.393 0.434-0.393 0.001 0 0.001 0 0.002 0h2.57c0 0 0.001 0 0.002 0 0.226 0 0.411 0.172 0.434 0.392l0 0.002 0.154 1.59c0.721 0.196 1.352 0.469 1.932 0.819l-0.034-0.019 1.226-1.017c0.075-0.063 0.173-0.101 0.279-0.101 0.122 0 0.232 0.050 0.311 0.13l1.792 1.811c0.078 0.079 0.126 0.188 0.126 0.308 0 0.107-0.038 0.204-0.101 0.28l0.001-0.001-1.015 1.223c0.334 0.546 0.608 1.177 0.788 1.847l0.012 0.051 1.594 0.154c0.22 0.023 0.391 0.207 0.391 0.431 0 0.001 0 0.003-0 0.004v-0 2.566c0 0.001 0 0.003 0 0.004 0 0.224-0.17 0.409-0.388 0.431l-0.002 0-1.571 0.154c-0.197 0.72-0.47 1.35-0.82 1.93l0.019-0.034 1.016 1.225c0.063 0.075 0.101 0.173 0.101 0.279 0 0.121-0.049 0.23-0.128 0.31l-1.814 1.81c-0.079 0.079-0.188 0.128-0.309 0.128-0.107 0-0.204-0.038-0.28-0.101l0.001 0.001-1.224-1.015c-0.547 0.334-1.18 0.607-1.85 0.787l-0.051 0.012-0.154 1.591c-0.022 0.222-0.208 0.393-0.434 0.393-0.001 0-0.001 0-0.002 0h-2.57c-0.001 0-0.001 0-0.002 0-0.226 0-0.411-0.172-0.434-0.392l-0-0.002-0.154-1.59c-0.721-0.196-1.352-0.469-1.932-0.82l0.034 0.019-1.226 1.017c-0.075 0.063-0.173 0.101-0.279 0.101-0.121 0-0.23-0.049-0.309-0.128l-1.814-1.811c-0.079-0.079-0.128-0.189-0.128-0.31 0-0.107 0.038-0.204 0.101-0.28l-0.001 0.001 1.015-1.223c-0.334-0.546-0.608-1.177-0.788-1.847l-0.012-0.051-1.594-0.154c-0.22-0.023-0.391-0.207-0.391-0.431 0-0.001 0-0.003 0-0.004v0z"></path>
</symbol>
<symbol id="acr-email1" viewBox="0 0 32 32">
<title>email1</title>
<path d="M26.667 5.333h-21.333c-1.467 0-2.653 1.2-2.653 2.667l-0.013 16c0 1.467 1.2 2.667 2.667 2.667h21.333c1.467 0 2.667-1.2 2.667-2.667v-16c0-1.467-1.2-2.667-2.667-2.667zM26.133 11l-9.427 5.893c-0.427 0.267-0.987 0.267-1.413 0l-9.427-5.893c-0.333-0.213-0.533-0.573-0.533-0.96 0-0.893 0.973-1.427 1.733-0.96l8.933 5.587 8.933-5.587c0.76-0.467 1.733 0.067 1.733 0.96 0 0.387-0.2 0.747-0.533 0.96z"></path>
</symbol>
<symbol id="acr-instagram" viewBox="0 0 32 32">
<title>instagram</title>
<path d="M16 12.693c-1.826 0-3.307 1.48-3.307 3.307s1.48 3.307 3.307 3.307c1.826 0 3.307-1.48 3.307-3.307v0c0-1.826-1.48-3.307-3.307-3.307v0zM29.24 9.427c-0.008-1.085-0.212-2.119-0.58-3.073l0.020 0.059c-0.553-1.43-1.663-2.54-3.057-3.081l-0.036-0.012c-0.894-0.348-1.929-0.552-3.010-0.56l-0.003-0c-1.72-0.093-2.227-0.093-6.573-0.093s-4.853 0-6.573 0.093c-1.085 0.008-2.119 0.212-3.073 0.58l0.059-0.020c-1.43 0.553-2.54 1.663-3.081 3.057l-0.012 0.036c-0.348 0.894-0.552 1.929-0.56 3.010l-0 0.003c-0.093 1.72-0.093 2.227-0.093 6.573s0 4.853 0.093 6.573c0.016 1.090 0.22 2.129 0.581 3.090l-0.021-0.063c0.281 0.729 0.694 1.352 1.213 1.866l0 0c0.517 0.523 1.145 0.936 1.844 1.201l0.036 0.012c0.894 0.348 1.929 0.552 3.010 0.56l0.003 0c1.72 0.093 2.227 0.093 6.573 0.093s4.853 0 6.573-0.093c1.085-0.008 2.119-0.212 3.073-0.58l-0.059 0.020c0.735-0.278 1.363-0.691 1.88-1.213l0-0c0.52-0.515 0.932-1.137 1.201-1.831l0.012-0.036c0.347-0.898 0.552-1.937 0.56-3.023l0-0.003c0.093-1.72 0.093-2.227 0.093-6.573s0-4.853-0.093-6.573zM25.853 20.093c-0.047 0.875-0.233 1.693-0.538 2.451l0.018-0.051c-0.534 1.296-1.544 2.306-2.806 2.828l-0.034 0.012c-0.714 0.271-1.54 0.44-2.402 0.466l-0.012 0c-1.053 0-1.333 0-4.080 0s-3.027 0-4.080 0c-0.873-0.026-1.699-0.195-2.466-0.484l0.053 0.017c-0.686-0.259-1.269-0.65-1.745-1.145l-0.002-0.002c-0.471-0.466-0.843-1.031-1.083-1.661l-0.011-0.032c-0.273-0.716-0.438-1.543-0.453-2.407l-0-0.007c0-1.053 0-1.333 0-4.080s0-3.027 0-4.080c0.015-0.87 0.18-1.698 0.47-2.464l-0.017 0.050c0.259-0.686 0.65-1.269 1.145-1.745l0.002-0.002c0.468-0.468 1.032-0.84 1.661-1.082l0.033-0.011c0.714-0.271 1.54-0.44 2.402-0.466l0.011-0c1.053 0 1.333 0 4.080 0s3.027 0 4.080 0c0.873 0.026 1.699 0.195 2.466 0.484l-0.053-0.017c0.686 0.259 1.269 0.65 1.745 1.145l0.002 0.002c0.471 0.466 0.843 1.031 1.083 1.661l0.011 0.032c0.271 0.714 0.44 1.54 0.466 2.402l0 0.011c0 1.053 0 1.333 0 4.080s0.093 3.027 0.053 4.080zM23.72 10.173c-0.329-0.874-1.006-1.551-1.858-1.873l-0.022-0.007c-0.521-0.186-1.121-0.294-1.747-0.294-0.033 0-0.066 0-0.098 0.001l0.005-0c-1.040 0-1.333 0-4 0s-2.96 0-4 0c-0.663 0.007-1.294 0.133-1.876 0.359l0.036-0.012c-0.862 0.314-1.536 0.966-1.872 1.792l-0.008 0.021c-0.178 0.527-0.28 1.134-0.28 1.765 0 0.026 0 0.053 0.001 0.079l-0-0.004c0 1.040 0 1.333 0 4s0 2.96 0 4c0.014 0.664 0.14 1.295 0.36 1.879l-0.013-0.039c0.329 0.874 1.006 1.551 1.858 1.873l0.022 0.007c0.525 0.199 1.131 0.324 1.764 0.346l0.010 0c1.040 0 1.333 0 4 0s2.96 0 4 0c0.663-0.007 1.294-0.133 1.876-0.359l-0.036 0.012c0.874-0.329 1.551-1.006 1.873-1.858l0.007-0.022c0.213-0.546 0.34-1.177 0.347-1.837l0-0.003c0-1.040 0-1.333 0-4s0-2.96 0-4c0-0.001 0-0.002 0-0.003 0-0.661-0.127-1.292-0.359-1.871l0.012 0.034zM16 21.093c0 0 0 0-0 0-2.806 0-5.080-2.274-5.080-5.080 0-0.005 0-0.009 0-0.014v0.001c0-2.813 2.28-5.093 5.093-5.093s5.093 2.28 5.093 5.093c0 2.813-2.28 5.093-5.093 5.093-0.005 0-0.009 0-0.014-0h0.001zM21.333 11.907c-0.606-0.066-1.074-0.575-1.074-1.193s0.468-1.127 1.068-1.193l0.005-0c0.606 0.066 1.074 0.575 1.074 1.193s-0.468 1.127-1.068 1.193l-0.005 0z"></path>
</symbol>
<symbol id="acr-Twitter" viewBox="0 0 32 32">
<title>Twitter</title>
<path d="M27.155 1h-22.31c-2.113 0-3.845 1.732-3.845 3.845v22.31c0 2.113 1.732 3.845 3.845 3.845h22.31c2.113 0 3.845-1.732 3.845-3.845v-22.31c0-2.113-1.732-3.845-3.845-3.845zM23.963 11.98c0.007 0.155 0.010 0.338 0.010 0.521 0 0.001 0 0.002 0 0.003v-0c0 0.803-0.095 1.624-0.279 2.44-1.041 4.616-4.988 9.064-11.409 9.064-2.318 0-4.478-0.669-6.298-1.817 0.293 0.036 0.631 0.057 0.975 0.057 0.002 0 0.005 0 0.007 0h-0c1.924 0 3.695-0.645 5.101-1.732-1.798-0.032-3.313-1.201-3.837-2.807 0.251 0.047 0.508 0.074 0.772 0.074 0.377 0 0.738-0.051 1.084-0.143-1.384-0.276-2.504-1.233-3.005-2.502-0.18-0.454-0.272-0.947-0.272-1.465v-0.051c0.563 0.303 1.179 0.485 1.852 0.507-1.101-0.726-1.832-1.964-1.832-3.365 0-0.741 0.201-1.436 0.554-2.033 2.026 2.446 5.051 4.057 8.465 4.226-0.067-0.277-0.105-0.595-0.105-0.921v-0c0-2.233 1.838-4.044 4.107-4.044 1.182 0 2.249 0.49 2.997 1.276 0.984-0.193 1.858-0.534 2.648-1.004l-0.038 0.021c-0.308 0.946-0.958 1.738-1.806 2.238 0.832-0.098 1.622-0.314 2.359-0.635-0.549 0.81-1.247 1.523-2.048 2.092z"></path>
</symbol>
<symbol id="acr-Linkdin" viewBox="0 0 32 32">
<title>Linkdin</title>
<path d="M27.155 1h-22.31c-2.113 0-3.845 1.733-3.845 3.845v22.31c0 2.113 1.732 3.845 3.845 3.845h22.31c2.113 0 3.845-1.733 3.845-3.845v-22.31c0-2.112-1.732-3.845-3.845-3.845zM11.313 15.488v9.262h-4.063v-11.688h4.063v2.426zM9.273 11.32c-1.13 0-2.047-0.916-2.047-2.047s0.917-2.046 2.047-2.046c1.132 0 2.048 0.915 2.048 2.046s-0.916 2.047-2.048 2.047zM24.75 18.375v6.375h-3.5v-5.677c0-1.359-0.147-3.108-2.010-3.108-1.891 0-2.177 1.48-2.177 3.010v5.775h-3.375v-11.688h3.25v1.563h0.035c0.485-0.875 1.672-1.564 3.441-1.564 2.979 0 3.992 1.409 4.269 3.613 0.066 0.517 0.091 1.075 0.091 1.7h-0.023z"></path>
</symbol>
<symbol id="acr-giftbox" viewBox="0 0 32 32">
<title>giftbox</title>
<path d="M29.913 6.233h-2.329c0.307-0.486 0.51-1.032 0.568-1.609 0.185-1.845-0.787-3.499-2.441-4.232-1.52-0.674-3.229-0.398-4.459 0.717l-2.941 2.666c-0.573-0.627-1.396-1.020-2.31-1.020-0.915 0-1.74 0.395-2.313 1.023l-2.945-2.669c-1.232-1.116-2.94-1.39-4.46-0.717-1.654 0.733-2.625 2.388-2.44 4.232 0.058 0.577 0.261 1.122 0.568 1.608h-2.323c-1.153 0-2.087 0.934-2.087 2.087v3.13c0 0.576 0.467 1.043 1.044 1.043h29.913c0.576 0 1.044-0.467 1.044-1.043v-3.13c-0-1.153-0.934-2.087-2.087-2.087zM12.87 5.885v0.348h-4.909c-1.297 0-2.318-1.209-1.994-2.559 0.143-0.595 0.572-1.102 1.127-1.358 0.762-0.352 1.607-0.239 2.247 0.34l3.529 3.199c-0 0.010-0.001 0.020-0.001 0.031zM26.081 4.346c-0.078 1.085-1.057 1.886-2.145 1.886h-4.806v-0.348c0-0.012-0.001-0.024-0.001-0.037 0.799-0.725 2.534-2.297 3.475-3.149 0.535-0.485 1.283-0.711 1.974-0.504 0.992 0.296 1.575 1.14 1.503 2.152z"></path>
<path d="M2.087 14.581v15.304c0 1.153 0.934 2.087 2.087 2.087h9.739v-17.391h-11.826z"></path>
<path d="M18.087 14.581v17.391h9.739c1.153 0 2.087-0.934 2.087-2.087v-15.304h-11.826z"></path>
</symbol>
<symbol id="acr-chevron-up" viewBox="0 0 32 32">
<title>chevron-up</title>
<path d="M16 8l16 16h-8l-8-8-8 8-8-0z"></path>
</symbol>
<symbol id="acr-chevron-left" viewBox="0 0 32 32">
<title>chevron-left</title>
<path d="M8 16l16-16v8l-8 8 8 8-0 8z"></path>
</symbol>
<symbol id="acr-chevron-right" viewBox="0 0 32 32">
<title>chevron-right</title>
<path d="M24 16l-16 16v-8l8-8-8-8 0.001-8z"></path>
</symbol>
<symbol id="acr-Facebook" viewBox="0 0 32 32">
<title>Facebook</title>
<path d="M24.571 2.286q2.125 0 3.634 1.509t1.509 3.634v17.143q0 2.125-1.509 3.634t-3.634 1.509h-3.357v-10.625h3.554l0.536-4.143h-4.089v-2.643q0-1 0.42-1.5t1.634-0.5l2.179-0.018v-3.696q-1.125-0.161-3.179-0.161-2.429 0-3.884 1.429t-1.455 4.036v3.054h-3.571v4.143h3.571v10.625h-9.5q-2.125 0-3.634-1.509t-1.509-3.634v-17.143q0-2.125 1.509-3.634t3.634-1.509h17.143z"></path>
</symbol>
<symbol id="acr-folder" viewBox="0 0 32 32">
<title>folder</title>
<path d="M31.597 12.796c-0.378-0.501-0.969-0.796-1.597-0.796h-24l22-1.76v-2.24c0-1.104-0.895-2-2-2h-8c-0.626 0-1.225-0.299-1.6-0.8l-1.201-1.601c-0.751-1.002-1.947-1.6-3.199-1.6h-10c-1.105 0-2 0.895-2 2v24c0 1.105 0.895 2 2 2h24c0.859 0 1.576-0.547 1.86-1.306 0.021-0.047 4.063-14.144 4.063-14.144 0.173-0.604 0.052-1.253-0.326-1.754z"></path>
</symbol>
<symbol id="acr-Star" viewBox="0 0 32 32">
<title>Star</title>
<path d="M16 23.027l8.24 4.973-2.18-9.373 7.273-6.3-9.587-0.827-3.747-8.833-3.747 8.833-9.587 0.827 7.273 6.3-2.18 9.373z"></path>
</symbol>
</defs>
</svg>
